<svg width="139" height="144" viewBox="0 0 139 144" fill="none" xmlns="http://www.w3.org/2000/svg">
<g clip-path="url(#clip0_176_450)">
<path d="M76.3589 86.6396C61.0037 101.977 56.4607 131.622 56.0651 134.373C56.0468 134.501 56.0329 134.573 56.0329 134.573C56.0329 134.573 87.9116 130.362 104.026 114.266C118.622 99.6874 116.054 77.2881 115.441 73.1954C115.372 72.7691 115.334 72.5427 115.334 72.5427C115.334 72.5427 92.4737 70.5437 76.3589 86.6396ZM98.3938 92.2597C94.563 96.4854 90.6689 100.649 86.6968 104.729C84.6913 106.756 82.7077 108.8 80.6925 110.812C78.6554 112.808 76.6499 114.835 74.5762 116.793C70.4654 120.747 66.2913 124.638 61.9273 128.344C65.4976 123.875 69.2602 119.58 73.091 115.354C74.9846 113.225 76.9535 111.16 78.8836 109.068C80.8355 106.994 82.8191 104.95 84.788 102.885C88.7503 98.7904 92.7978 94.7747 96.9086 90.821C101.019 86.8673 105.193 82.9756 109.562 79.2773C105.98 83.744 102.225 88.034 98.3938 92.2597Z" fill="#B78657"/>
<path d="M86.3504 40.7662C79.9269 39.5238 74.3832 41.3409 69.8641 46.1822C63.1298 53.3929 53.5042 54.3715 42.0179 49.0054C37.1126 46.7089 32.9047 43.7485 30.221 41.6641C30.3395 54.5136 44.4518 66.7759 63.5412 69.9116C83.3248 73.153 101.225 65.4294 104.703 52.5189C102.53 49.0778 94.9078 42.4172 86.3504 40.7662Z" fill="#754A20"/>
<path d="M30.8067 37.0082C32.8352 38.7184 37.824 42.6717 43.7841 45.4489C53.6577 50.0412 61.4548 49.3818 66.9654 43.4873C72.4066 37.6612 79.3692 35.3726 87.121 36.878C94.4809 38.3032 101.253 42.9559 105.289 47.074C104.663 34.4858 90.7136 22.6174 71.9821 19.543C52.1767 16.2849 34.2431 24.0523 30.8067 37.0082Z" fill="#754A20"/>
</g>
<defs>
<clipPath id="clip0_176_450">
<rect width="110.592" height="92.8425" fill="white" transform="translate(62.2178 143.662) rotate(-124.235)"/>
</clipPath>
</defs>
</svg>
